#!OML:ASF H:\Pregnant\Project 1\Capture day 1\Session 1\femalepreg.ASF
:FULLY-SPECIFIED
:DEGREES
467
root 3.3897 15.8587 12.4069 26.6866 -12.4618 -0.054727
lowerback -10.9269 -2.19195 -4.43255
upperback -7.11851 -2.58365 1.93936
thorax -1.0454 -1.14302 4.25401
lowerneck -21.9883 -9.03875 -7.21861
upperneck 20.4898 -12.3104 8.00875
head 11.2486 -5.20865 2.03949
rclavicle 1.87355e-014 -9.93923e-016
rhumerus -36.6315 4.97858 -74.0031
rradius 31.8315
rwrist -8.40759
rhand -16.6603 -16.676
rfingers 7.12502
rthumb 9.56308 -46.4389
lclavicle 1.87355e-014 -9.93923e-016
lhumerus -42.5722 -7.28017 81.4555
lradius 47.4772
lwrist 37.9258
lhand -24.6281 -2.94189
lfingers 7.12502
lthumb 1.87073 27.0297
rfemur -43.1335 17.2335 -2.12386
rtibia 29.1233
rfoot -12.3641 -27.4722
rtoes -1.56076
lfemur -21.2721 3.10554 -10.7769
ltibia -9.54166e-015
lfoot 0.55292 17.8566
ltoes -8.04895
468
root 3.38771 15.8546 12.429 26.373 -12.5149 -0.101257
lowerback -11.1199 -2.18916 -4.37058
upperback -7.04658 -2.57603 1.97827
thorax -0.866312 -1.14612 4.2526
lowerneck -21.7506 -9.04832 -7.26753
upperneck 20.5905 -12.3184 7.94727
head 11.2411 -5.22951 2.03107
rclavicle 2.96438e-014 -3.34455e-014
rhumerus -36.5931 5.04657 -74.1016
rradius 31.6293
rwrist -8.28723
rhand -16.8051 -16.6295
rfingers 7.12502
rthumb 9.42344 -46.3988
lclavicle 2.96438e-014 -3.34455e-014
lhumerus -42.3377 -7.08878 81.5632
lradius 47.2923
lwrist 37.8766
lhand -24.8062 -3.04504
lfingers 7.12502
lthumb 1.69871 26.9279
rfemur -42.7051 17.312 -1.91524
rtibia 29.0956
rfoot -12.1258 -27.3079
rtoes -1.89547
lfemur -20.7584 3.16167 -10.7644
ltibia 5.80451e-014
lfoot 0.177356 17.8292
ltoes -7.05228
469
root 3.38578 15.85 12.4512 26.0601 -12.5654 -0.140273
lowerback -11.3115 -2.18397 -4.30473
upperback -6.97237 -2.56598 2.00927
thorax -0.686439 -1.14817 4.24111
lowerneck -21.5195 -9.06488 -7.31728
upperneck 20.6836 -12.3341 7.88245
head 11.2324 -5.25424 2.02009
rclavicle 3.67752e-015 -2.20651e-014
rhumerus -36.5399 5.06258 -74.1982
rradius 31.4103
rwrist -8.149
rhand -16.9329 -16.5762
rfingers 7.12502
rthumb 9.30011 -46.351
lclavicle 3.67752e-015 -2.20651e-014
lhumerus -42.0967 -6.91737 81.6741
lradius 47.072
lwrist 37.8456
lhand -24.97 -3.12097
lfingers 7.12502
lthumb 1.54054 26.8532
rfemur -42.279 17.3434 -1.69682
rtibia 29.076
rfoot -11.8321 -27.1564
rtoes -2.4573
lfemur -20.2464 3.21257 -10.7567
ltibia 2.54444e-014
lfoot -0.212358 17.7953
ltoes -5.97219
470
root 3.38382 15.8449 12.4736 25.7496 -12.6118 -0.168495
lowerback -11.5013 -2.1805 -4.24177
upperback -6.90122 -2.55853 2.03671
thorax -0.510672 -1.15122 4.22747
lowerneck -21.2823 -9.08497 -7.37837
upperneck 20.7683 -12.3513 7.81946
head 11.2204 -5.28074 2.01159
rclavicle -6.74004e-015 2.36554e-014
rhumerus -36.4765 5.03348 -74.2891
rradius 31.1779
rwrist -7.99181
rhand -17.0298 -16.5302
rfingers 7.12502
rthumb 9.20656 -46.3092
lclavicle -6.74004e-015 2.36554e-014
lhumerus -41.8616 -6.75564 81.7913
lradius 46.8185
lwrist 37.8298
lhand -25.1194 -3.17493
lfingers 7.12502
lthumb 1.39626 26.8002
rfemur -41.8614 17.3346 -1.47535
rtibia 29.0718
rfoot -11.5134 -27.0143
rtoes -3.25425
lfemur -19.7401 3.25587 -10.7568
ltibia -4.37326e-014
lfoot -0.60973 17.7543
ltoes -4.83787
471
root 3.3817 15.8397 12.4959 25.4449 -12.6472 -0.18153
lowerback -11.698 -2.1799 -4.18198
upperback -6.82994 -2.55462 2.05644
thorax -0.331025 -1.15603 4.20702
lowerneck -21.0333 -9.10648 -7.44872
upperneck 20.8357 -12.3698 7.76709
head 11.2013 -5.30803 2.00871
rclavicle 3.02525e-014 2.18663e-015
rhumerus -36.4001 4.94823 -74.377
rradius 30.9366
rwrist -7.81884
rhand -17.0993 -16.5039
rfingers 7.12502
rthumb 9.13949 -46.2859
lclavicle 3.02525e-014 2.18663e-015
lhumerus -41.6206 -6.61552 81.9117
lradius 46.5282
lwrist 37.8331
lhand -25.2413 -3.21589
lfingers 7.12502
lthumb 1.27849 26.76
rfemur -41.4584 17.2911 -1.25763
rtibia 29.0916
rfoot -11.2091 -26.8815
rtoes -4.25451
lfemur -19.2481 3.28413 -10.7665
ltibia -2.8625e-014
lfoot -1.00037 17.7052
ltoes -3.71545
472
root 3.37904 15.8347 12.5177 25.1507 -12.6666 -0.174285
lowerback -11.9005 -2.18592 -4.13693
upperback -6.76179 -2.55818 2.07058
thorax -0.15063 -1.16413 4.18812
lowerneck -20.779 -9.12605 -7.52246
upperneck 20.8922 -12.3851 7.71831
head 11.1773 -5.33412 2.00858
rclavicle 4.68386e-015 -1.92821e-014
rhumerus -36.312 4.80578 -74.4584
rradius 30.6885
rwrist -7.62491
rhand -17.1303 -16.4861
rfingers 7.12502
rthumb 9.10961 -46.2693
lclavicle 4.68386e-015 -1.92821e-014
lhumerus -41.3733 -6.49301 82.0368
lradius 46.199
lwrist 37.8488
lhand -25.3388 -3.24291
lfingers 7.12502
lthumb 1.18436 26.7335
rfemur -41.0799 17.222 -1.05294
rtibia 29.1422
rfoot -10.9363 -26.7691
rtoes -5.37533
lfemur -18.7817 3.29283 -10.7868
ltibia 8.5875e-014
lfoot -1.38475 17.6483
ltoes -2.58771
